<svg width="200" height="200" viewBox="0 0 200 200" fill="none" xmlns="http://www.w3.org/2000/svg">
<rect width="200" height="200" rx="8" fill="#293133"/>
<path d="M54.5697 145C55.2417 145 55.9137 144.328 56.5857 142.984C57.2577 141.64 57.5937 139.432 57.5937 136.36V67.24C57.5937 64.168 57.2577 62.008 56.5857 60.76C55.9137 59.416 55.2417 58.696 54.5697 58.6H99.7857C108.33 58.6 115.434 59.416 121.098 61.048C126.858 62.68 131.466 64.936 134.922 67.816C138.474 70.696 141.162 74.008 142.986 77.752C144.81 81.4 146.01 85.288 146.586 89.416C147.258 93.544 147.594 97.72 147.594 101.944C147.594 105.784 147.258 109.768 146.586 113.896C146.01 117.928 144.762 121.816 142.842 125.56C141.018 129.208 138.33 132.52 134.778 135.496C131.322 138.376 126.714 140.68 120.954 142.408C115.29 144.136 108.234 145 99.7857 145H54.5697ZM79.4817 133.336H97.1937C105.45 133.336 112.074 132.28 117.066 130.168C122.058 128.056 125.706 124.792 128.01 120.376C130.314 115.864 131.466 110.056 131.466 102.952V100.36C131.466 92.872 130.41 86.968 128.298 82.648C126.186 78.232 122.634 75.112 117.642 73.288C112.65 71.368 105.834 70.408 97.1937 70.408H79.4817C76.6977 70.408 75.0177 70.6 74.4417 70.984C73.9617 71.272 73.7217 72.424 73.7217 74.44V129.016C73.7217 131.128 73.9617 132.376 74.4417 132.76C75.0177 133.144 76.6977 133.336 79.4817 133.336Z" fill="#B7B7B5"/>
</svg>
