<svg width="200" height="200" viewBox="0 0 200 200" fill="none" xmlns="http://www.w3.org/2000/svg">
<path d="M21.16 100C21.328 100 21.496 99.832 21.664 99.496C21.832 99.16 21.916 98.608 21.916 97.84V80.56C21.916 79.792 21.832 79.252 21.664 78.94C21.496 78.604 21.328 78.424 21.16 78.4H32.464C34.6 78.4 36.376 78.604 37.792 79.012C39.232 79.42 40.384 79.984 41.248 80.704C42.136 81.424 42.808 82.252 43.264 83.188C43.72 84.1 44.02 85.072 44.164 86.104C44.332 87.136 44.416 88.18 44.416 89.236C44.416 90.196 44.332 91.192 44.164 92.224C44.02 93.232 43.708 94.204 43.228 95.14C42.772 96.052 42.1 96.88 41.212 97.624C40.348 98.344 39.196 98.92 37.756 99.352C36.34 99.784 34.576 100 32.464 100H21.16ZM27.388 97.084H31.816C33.88 97.084 35.536 96.82 36.784 96.292C38.032 95.764 38.944 94.948 39.52 93.844C40.096 92.716 40.384 91.264 40.384 89.488V88.84C40.384 86.968 40.12 85.492 39.592 84.412C39.064 83.308 38.176 82.528 36.928 82.072C35.68 81.592 33.976 81.352 31.816 81.352H27.388C26.692 81.352 26.272 81.4 26.128 81.496C26.008 81.568 25.948 81.856 25.948 82.36V96.004C25.948 96.532 26.008 96.844 26.128 96.94C26.272 97.036 26.692 97.084 27.388 97.084ZM56.7272 100.36C54.8312 100.36 53.2712 100.144 52.0472 99.712C50.8232 99.256 49.8632 98.632 49.1672 97.84C48.4712 97.048 47.9792 96.124 47.6912 95.068C47.4272 94.012 47.2952 92.86 47.2952 91.612C47.2952 88.9 48.0632 86.752 49.5992 85.168C51.1592 83.584 53.4632 82.792 56.5112 82.792C58.2872 82.792 59.7152 83.032 60.7952 83.512C61.8992 83.992 62.7272 84.628 63.2792 85.42C63.8552 86.212 64.2392 87.076 64.4312 88.012C64.6472 88.924 64.7552 89.824 64.7552 90.712V92.404C64.7552 92.332 64.4192 92.26 63.7472 92.188C63.0992 92.092 61.9952 92.044 60.4352 92.044H50.9672C50.9672 93.82 51.4952 95.224 52.5512 96.256C53.6072 97.288 55.1792 97.804 57.2672 97.804C59.0672 97.804 60.5432 97.588 61.6952 97.156C62.8712 96.7 63.6512 96.256 64.0352 95.824V96.544L64.3952 98.92C63.8672 99.232 62.9312 99.556 61.5872 99.892C60.2672 100.204 58.6472 100.36 56.7272 100.36ZM52.4072 89.668H61.1552C61.1552 89.044 61.0232 88.396 60.7592 87.724C60.4952 87.052 60.0272 86.488 59.3552 86.032C58.6832 85.552 57.7352 85.312 56.5112 85.312C55.4792 85.312 54.5792 85.492 53.8112 85.852C53.0432 86.188 52.4432 86.632 52.0112 87.184C51.6032 87.736 51.3992 88.324 51.3992 88.948C51.3992 89.188 51.4712 89.368 51.6152 89.488C51.7592 89.608 52.0232 89.668 52.4072 89.668ZM67.8357 100C68.0037 100 68.1597 99.832 68.3037 99.496C68.4717 99.16 68.5557 98.608 68.5557 97.84V85.672C68.5557 84.904 68.4717 84.364 68.3037 84.052C68.1597 83.716 68.0037 83.536 67.8357 83.512C68.8917 83.512 69.8037 83.44 70.5717 83.296C71.3637 83.128 71.9157 82.96 72.2277 82.792V84.988L72.1557 85.456L72.2277 85.528C72.5877 85.072 72.9837 84.64 73.4157 84.232C73.8717 83.824 74.4597 83.488 75.1797 83.224C75.8997 82.936 76.8237 82.792 77.9517 82.792C80.1837 82.792 81.8877 83.428 83.0637 84.7C84.2637 85.972 84.8637 87.964 84.8637 90.676V97.84C84.8637 98.608 84.9357 99.16 85.0797 99.496C85.2477 99.832 85.4157 100 85.5837 100H80.4717C80.6397 100 80.7957 99.832 80.9397 99.496C81.1077 99.16 81.1917 98.608 81.1917 97.84V90.784C81.1917 89.368 81.0117 88.264 80.6517 87.472C80.2917 86.68 79.7877 86.128 79.1397 85.816C78.5157 85.48 77.7837 85.312 76.9437 85.312C76.0557 85.312 75.2517 85.504 74.5317 85.888C73.8117 86.272 73.2477 86.884 72.8397 87.724C72.4317 88.564 72.2277 89.692 72.2277 91.108V97.84C72.2277 98.608 72.2997 99.16 72.4437 99.496C72.6117 99.832 72.7797 100 72.9477 100H67.8357ZM93.0717 100C93.2397 100 93.3957 99.832 93.5397 99.496C93.7077 99.16 93.7917 98.608 93.7917 97.84V90.784C93.7917 89.368 93.6117 88.264 93.2517 87.472C92.8917 86.68 92.3877 86.128 91.7397 85.816C91.1157 85.48 90.3837 85.312 89.5437 85.312C88.1517 85.312 87.0237 85.756 86.1597 86.644C85.2957 87.508 84.8637 88.984 84.8637 91.072L83.3877 87.472C83.4597 87.208 83.6277 86.824 83.8917 86.32C84.1797 85.816 84.5877 85.3 85.1157 84.772C85.6677 84.22 86.3757 83.752 87.2397 83.368C88.1277 82.984 89.2317 82.792 90.5517 82.792C92.0397 82.792 93.2997 83.08 94.3317 83.656C95.3637 84.208 96.1437 85.06 96.6717 86.212C97.1997 87.364 97.4637 88.852 97.4637 90.676V97.84C97.4637 98.608 97.5357 99.16 97.6797 99.496C97.8477 99.832 98.0157 100 98.1837 100H93.0717ZM110.161 100.36C107.761 100.36 105.877 99.976 104.509 99.208C103.165 98.44 102.217 97.396 101.665 96.076C101.137 94.756 100.873 93.268 100.873 91.612C100.873 89.932 101.149 88.432 101.701 87.112C102.277 85.792 103.237 84.748 104.581 83.98C105.925 83.188 107.785 82.792 110.161 82.792C112.537 82.792 114.397 83.188 115.741 83.98C117.085 84.748 118.033 85.792 118.585 87.112C119.161 88.432 119.449 89.932 119.449 91.612C119.449 93.268 119.173 94.756 118.621 96.076C118.093 97.396 117.157 98.44 115.813 99.208C114.469 99.976 112.585 100.36 110.161 100.36ZM110.161 97.804C111.649 97.804 112.801 97.564 113.617 97.084C114.433 96.604 114.997 95.908 115.309 94.996C115.621 94.06 115.777 92.932 115.777 91.612C115.777 90.292 115.609 89.164 115.273 88.228C114.961 87.292 114.397 86.572 113.581 86.068C112.789 85.564 111.649 85.312 110.161 85.312C108.697 85.312 107.557 85.576 106.741 86.104C105.925 86.608 105.349 87.34 105.013 88.3C104.701 89.236 104.545 90.352 104.545 91.648C104.545 92.92 104.701 94.024 105.013 94.96C105.325 95.872 105.889 96.58 106.705 97.084C107.521 97.564 108.673 97.804 110.161 97.804ZM122.363 100C122.531 100 122.687 99.832 122.831 99.496C122.999 99.16 123.083 98.608 123.083 97.84V85.672C123.083 84.904 122.999 84.364 122.831 84.052C122.687 83.716 122.531 83.536 122.363 83.512C123.419 83.512 124.331 83.44 125.099 83.296C125.891 83.128 126.443 82.96 126.755 82.792V84.592L126.683 85.204L126.755 85.276C127.115 84.796 127.547 84.376 128.051 84.016C128.579 83.632 129.179 83.332 129.851 83.116C130.523 82.9 131.291 82.792 132.155 82.792C133.283 82.792 134.255 82.96 135.071 83.296C135.911 83.608 136.511 83.932 136.871 84.268L136.151 87.292V88.372C135.839 87.988 135.383 87.592 134.783 87.184C134.207 86.752 133.547 86.392 132.803 86.104C132.059 85.816 131.267 85.672 130.427 85.672C129.467 85.672 128.615 86.056 127.871 86.824C127.127 87.592 126.755 88.864 126.755 90.64V97.84C126.755 98.608 126.827 99.16 126.971 99.496C127.139 99.832 127.307 100 127.475 100H122.363ZM146.932 108.784C145.54 108.784 144.256 108.688 143.08 108.496C141.928 108.304 140.92 108.064 140.056 107.776C139.216 107.512 138.568 107.248 138.112 106.984L138.832 103.744V102.7C139.168 103.204 139.696 103.732 140.416 104.284C141.136 104.836 142.036 105.304 143.116 105.688C144.196 106.072 145.42 106.264 146.788 106.264C148.396 106.264 149.584 106 150.352 105.472C151.144 104.944 151.66 104.212 151.9 103.276C152.164 102.34 152.296 101.272 152.296 100.072V98.74L152.368 98.092L152.296 98.02C151.984 98.428 151.552 98.812 151 99.172C150.448 99.532 149.788 99.82 149.02 100.036C148.252 100.252 147.388 100.36 146.428 100.36C144.148 100.36 142.372 99.976 141.1 99.208C139.852 98.44 138.976 97.396 138.472 96.076C137.992 94.756 137.752 93.268 137.752 91.612C137.752 89.932 137.992 88.432 138.472 87.112C138.976 85.792 139.852 84.748 141.1 83.98C142.372 83.188 144.148 82.792 146.428 82.792C147.388 82.792 148.24 82.888 148.984 83.08C149.728 83.248 150.376 83.488 150.928 83.8C151.48 84.088 151.936 84.436 152.296 84.844L152.368 84.808L152.296 84.124V83.152H156.688C156.52 83.176 156.352 83.356 156.184 83.692C156.04 84.028 155.968 84.592 155.968 85.384V99.172C155.968 102.652 155.224 105.124 153.736 106.588C152.272 108.052 150.004 108.784 146.932 108.784ZM146.68 97.804C148.168 97.804 149.32 97.576 150.136 97.12C150.952 96.64 151.516 95.944 151.828 95.032C152.14 94.096 152.296 92.956 152.296 91.612C152.296 90.292 152.128 89.164 151.792 88.228C151.48 87.292 150.916 86.572 150.1 86.068C149.308 85.564 148.168 85.312 146.68 85.312C145.336 85.312 144.28 85.576 143.512 86.104C142.744 86.608 142.192 87.34 141.856 88.3C141.544 89.236 141.388 90.352 141.388 91.648C141.388 92.92 141.544 94.024 141.856 94.96C142.168 95.872 142.708 96.58 143.476 97.084C144.268 97.564 145.336 97.804 146.68 97.804ZM167.032 100.36C164.416 100.36 162.58 99.892 161.524 98.956C160.468 97.996 159.94 96.712 159.94 95.104C159.94 93.976 160.216 93.016 160.768 92.224C161.344 91.408 162.196 90.784 163.324 90.352C164.476 89.92 165.928 89.704 167.68 89.704C168.928 89.704 170.008 89.8 170.92 89.992C171.856 90.16 172.612 90.364 173.188 90.604C173.788 90.844 174.208 91.048 174.448 91.216C174.448 89.8 174.268 88.66 173.908 87.796C173.572 86.932 173.02 86.308 172.252 85.924C171.484 85.516 170.44 85.312 169.12 85.312C167.704 85.312 166.432 85.48 165.304 85.816C164.2 86.128 163.312 86.476 162.64 86.86C161.968 87.22 161.548 87.484 161.38 87.652V86.932L161.02 84.232C161.236 84.136 161.704 83.98 162.424 83.764C163.144 83.524 164.092 83.308 165.268 83.116C166.444 82.9 167.824 82.792 169.408 82.792C171.424 82.792 173.068 83.08 174.34 83.656C175.636 84.208 176.584 85.072 177.184 86.248C177.808 87.4 178.12 88.864 178.12 90.64V97.84C178.12 98.512 178.192 99.004 178.336 99.316C178.504 99.604 178.672 99.832 178.84 100H174.448V98.92L174.52 98.236L174.448 98.2C174.064 98.56 173.608 98.872 173.08 99.136C172.552 99.4 171.976 99.628 171.352 99.82C170.728 99.988 170.044 100.12 169.3 100.216C168.58 100.312 167.824 100.36 167.032 100.36ZM168.22 97.804C169.516 97.804 170.632 97.672 171.568 97.408C172.504 97.144 173.212 96.796 173.692 96.364C174.196 95.908 174.448 95.392 174.448 94.816C174.448 94.096 173.968 93.484 173.008 92.98C172.072 92.476 170.608 92.224 168.616 92.224C166.768 92.224 165.46 92.464 164.692 92.944C163.948 93.424 163.576 94.144 163.576 95.104C163.576 96.04 163.936 96.724 164.656 97.156C165.4 97.588 166.588 97.804 168.22 97.804Z" fill="black"/>
</svg>
